<svg width="14.000000" height="10.000000" viewBox="0 0 14 10" fill="none" xmlns="http://www.w3.org/2000/svg" xmlns:xlink="http://www.w3.org/1999/xlink">
	<desc>
			Created with Pixso.
	</desc>
	<defs/>
	<path id="Vector" d="M7 2.59C5.87 2.59 4.95 3.51 4.95 4.64C4.95 5.76 5.87 6.68 7 6.68C8.12 6.68 9.04 5.76 9.04 4.64C9.04 3.51 8.12 2.59 7 2.59ZM7 -0.61C3.13 -0.61 0 3.76 0 4.64C0 5.51 3.13 9.89 7 9.89C10.86 9.89 14 5.51 14 4.64C14 3.76 10.86 -0.61 7 -0.61ZM7 7.84C5.22 7.84 3.79 6.41 3.79 4.64C3.79 2.86 5.22 1.43 7 1.43C8.77 1.43 10.2 2.86 10.2 4.64C10.2 6.41 8.77 7.84 7 7.84Z" fill="#9E9EA7" fill-opacity="1.000000" fill-rule="nonzero"/>
</svg>
